# xmcd CD database file
#
# Track frame offsets:
#	150
#	14802
#	34494
#	45280
#	66852
#	82702
#	101192
#	130142
#	151138
#	167176
#	187094
#	204121
#
# Disc length: 2995 seconds
#
# Revision: 0
# Processed by: cddbd v1.5.1PL0 Copyright (c) Steve Scherf et al.
# Submitted via: CDex 1.51
#
DISCID=9b0bb10c
DTITLE=Reed Gratz - Below Sealevel
DYEAR=1999
DGENRE=Jazz
TTITLE0=Bahia Blanca
TTITLE1=Below Sealevel
TTITLE2=Pandora
TTITLE3=Hi! Ho Silver
TTITLE4=The Amish
TTITLE5=JB/JZ
TTITLE6=St. Petersburg
TTITLE7=Crescent Bay
TTITLE8=Amsterdam 1642
TTITLE9=Erin's Eyes
TTITLE10=Blue 156th Street
TTITLE11=Growing
EXTD=YEAR: 1999
EXTT0=
EXTT1=
EXTT2=
EXTT3=
EXTT4=
EXTT5=
EXTT6=
EXTT7=
EXTT8=
EXTT9=
EXTT10=
EXTT11=
PLAYORDER=
